<svg width="182" height="98" viewBox="0 0 182 98" fill="none" xmlns="http://www.w3.org/2000/svg">
<path d="M165.2 85.1083L173.742 91.6132C176.027 93.3531 174.797 97 171.925 97H3.81641C2.15955 97 0.816406 95.6569 0.816406 94V35.0011C0.816406 34.3804 1.00893 33.775 1.36743 33.2683L13.3975 16.266C14.8804 14.1702 18.1394 14.7842 18.7581 17.2759L32.9449 74.4167C33.2922 75.8157 34.5855 76.7699 36.0248 76.689L48.2197 76.0038C49.2673 75.945 50.2081 75.343 50.7005 74.4164L62.2869 52.6148C63.2211 50.8568 65.5772 50.4798 67.0135 51.8584L78.8804 63.2493C80.5477 64.8497 83.3223 64.0431 83.8718 61.7983L95.8093 13.0282C96.5711 9.91592 101.027 10.0051 101.663 13.1453L114.447 76.1939C114.877 78.319 117.351 79.2992 119.121 78.0461L131.076 69.5792C131.502 69.2778 131.841 68.8707 132.062 68.398L144.866 40.9171C146.017 38.4466 149.6 38.6671 150.44 41.26L164.163 83.6457C164.352 84.2275 164.714 84.7378 165.2 85.1083Z" fill="url(#paint0_linear_2171_100382)"/>
<path d="M180.816 97L165.2 85.1083C164.714 84.7378 164.352 84.2275 164.163 83.6457L150.44 41.26C149.6 38.6671 146.017 38.4466 144.866 40.9171L132.062 68.398C131.841 68.8707 131.502 69.2778 131.076 69.5792L119.121 78.0461C117.351 79.2992 114.877 78.319 114.447 76.1939L101.663 13.1453C101.027 10.0051 96.5711 9.91592 95.8093 13.0282L83.8718 61.7983C83.3223 64.0431 80.5477 64.8497 78.8804 63.2493L67.0135 51.8584C65.5772 50.4798 63.2211 50.8568 62.2869 52.6148L50.7005 74.4164C50.2081 75.343 49.2674 75.945 48.2197 76.0038L36.0248 76.689C34.5855 76.7699 33.2922 75.8157 32.9449 74.4167L18.7581 17.2759C18.1394 14.7842 14.8803 14.1702 13.3975 16.266L0.816406 34.0471" stroke="#0A8058" stroke-width="2"/>
<defs>
<linearGradient id="paint0_linear_2171_100382" x1="90.8164" y1="-81.6366" x2="90.8164" y2="97" gradientUnits="userSpaceOnUse">
<stop stop-color="#0E9F6E"/>
<stop offset="1" stop-color="#0E9F6E" stop-opacity="0"/>
</linearGradient>
</defs>
</svg>
