<svg width="24" height="24" viewBox="0 0 24 24" fill="none" xmlns="http://www.w3.org/2000/svg">
<path d="M21.5459 16.2998C21.9323 16.1512 22.3658 16.3442 22.5146 16.7305C22.6667 17.1258 22.75 17.5543 22.75 18C22.75 19.9884 21.1133 21.5781 19.1221 21.5781H17.2871C17.4789 21.8597 17.4593 22.2463 17.2188 22.5078C16.9383 22.8125 16.4639 22.8321 16.1592 22.5518L15.3359 21.7939C15.3301 21.7885 15.3241 21.7829 15.3184 21.7773C15.3127 21.7717 15.306 21.7658 15.2998 21.7598C15.228 21.6894 15.1254 21.5877 15.0508 21.4902C14.9892 21.4098 14.728 21.0568 14.915 20.6123C15.0996 20.1743 15.5277 20.1084 15.626 20.0947C15.7471 20.0779 15.8915 20.078 15.9932 20.0781H19.1221C20.3095 20.0781 21.25 19.1356 21.25 18C21.25 17.8061 21.2231 17.6193 21.1729 17.4424L21.0908 17.1963C20.991 16.8296 21.1835 16.4392 21.5459 16.2998ZM17 1.25C18.1198 1.25 19.191 1.37292 20.168 1.59668C20.1873 1.6011 20.2065 1.60502 20.2256 1.60938C20.7724 1.73428 21.218 1.83657 21.7061 2.22266C21.9981 2.45374 22.3233 2.86101 22.4834 3.19727C22.7516 3.76074 22.7507 4.3186 22.75 5.00879V11.5C22.75 11.9142 22.4142 12.25 22 12.25C21.5858 12.2499 21.25 11.9142 21.25 11.5V5.11426C21.25 4.27178 21.2354 4.06557 21.1289 3.8418C21.0675 3.71282 20.8874 3.48801 20.7754 3.39941C20.5724 3.23882 20.4413 3.19793 19.833 3.05859C18.9706 2.86106 18.012 2.75 17 2.75C15.1744 2.75002 13.5352 3.1109 12.3174 3.67969C10.8702 4.35556 9.00842 4.75 7 4.75C5.8803 4.74999 4.80984 4.62704 3.83301 4.40332C3.23951 4.26738 2.75 4.71179 2.75 5.11426V15.8857C2.75 16.7282 2.76459 16.9344 2.87109 17.1582C2.93245 17.2871 3.11261 17.5119 3.22461 17.6006C3.42761 17.7612 3.55938 17.802 4.16797 17.9414C5.03028 18.1389 5.98818 18.25 7 18.25C8.39595 18.25 9.68693 18.0389 10.7646 17.6826C11.1579 17.5526 11.5818 17.766 11.7119 18.1592C11.8419 18.5525 11.6286 18.9764 11.2354 19.1064C9.99276 19.5173 8.54167 19.75 7 19.75C5.8803 19.75 4.80984 19.627 3.83301 19.4033C3.81347 19.3988 3.79369 19.395 3.77441 19.3906C3.22757 19.2657 2.78207 19.1635 2.29395 18.7773C2.0019 18.5463 1.67665 18.139 1.5166 17.8027C1.24846 17.2393 1.24933 16.6814 1.25 15.9912V5.11426C1.25 3.54707 2.84152 2.63759 4.16797 2.94141C5.03028 3.13889 5.98818 3.24999 7 3.25C8.82562 3.25 10.4648 2.8891 11.6826 2.32031C13.1298 1.64441 14.9916 1.25002 17 1.25ZM18.7812 13.4922C19.0618 13.1875 19.5371 13.1677 19.8418 13.4482L20.665 14.2061C20.671 14.2115 20.6769 14.217 20.6826 14.2227C20.6883 14.2282 20.694 14.2342 20.7002 14.2402C20.772 14.3106 20.8756 14.4123 20.9502 14.5098C21.0122 14.5908 21.2718 14.9437 21.085 15.3877C20.9006 15.825 20.4742 15.8915 20.375 15.9053C20.254 15.9221 20.1095 15.922 20.0078 15.9219H16.8779C15.6905 15.9219 14.75 16.8644 14.75 18C14.75 18.1939 14.7769 18.3807 14.8271 18.5576L14.9092 18.8037C15.0091 19.1705 14.8165 19.5608 14.4541 19.7002C14.0677 19.8486 13.6341 19.6558 13.4854 19.2695C13.3333 18.8742 13.25 18.4457 13.25 18C13.25 16.0116 14.8867 14.4219 16.8779 14.4219H18.7129C18.5211 14.1403 18.5408 13.7537 18.7812 13.4922ZM12 7.25C13.7949 7.25 15.25 8.70507 15.25 10.5C15.25 12.2949 13.7949 13.75 12 13.75C10.2051 13.7499 8.75 12.2949 8.75 10.5C8.75 8.70512 10.2051 7.25007 12 7.25ZM5.5 10.5C6.05228 10.5 6.5 10.9477 6.5 11.5V11.5088C6.5 12.0611 6.05228 12.5088 5.5 12.5088C4.94778 12.5087 4.5 12.061 4.5 11.5088V11.5C4.5 10.9478 4.94778 10.5001 5.5 10.5ZM12 8.75C11.0336 8.75007 10.25 9.53355 10.25 10.5C10.25 11.4665 11.0336 12.2499 12 12.25C12.9665 12.25 13.75 11.4665 13.75 10.5C13.75 9.5335 12.9665 8.75 12 8.75ZM18.5 8.49219C19.0523 8.49219 19.5 8.9399 19.5 9.49219V9.50098C19.5 10.0533 19.0523 10.501 18.5 10.501C17.9478 10.5009 17.5 10.0532 17.5 9.50098V9.49219C17.5 8.93995 17.9478 8.49226 18.5 8.49219Z" fill="#1A1A31"/>
</svg>
