<svg width="182" height="94" viewBox="0 0 182 94" fill="none" xmlns="http://www.w3.org/2000/svg">
<path d="M166.008 50.4135L180 16.4511C180.425 15.5382 181.796 15.8583 181.772 16.8651L180.068 90.6386C180.03 92.2681 178.698 93.5693 177.069 93.5693H3C1.34314 93.5693 0 92.2262 0 90.5693V75.7509C0 73.8749 1.70247 72.4591 3.54701 72.8012L14.1372 74.7651C15.4548 75.0095 16.7748 74.3502 17.371 73.15L30.9676 45.7772C31.8514 43.998 34.1891 43.5536 35.6641 44.8844L45.4812 53.7418C47.1384 55.237 49.7898 54.4635 50.383 52.3117L62.1751 9.53727C63.0107 6.50631 67.3533 6.6388 68.0026 9.71507L79.4265 63.8456C80.0658 66.8747 84.3172 67.0681 85.2288 64.1095L98.0611 22.4655C98.1412 22.2056 98.2563 21.9578 98.4031 21.7289L111.459 1.37983C112.765 -0.655288 115.818 -0.3887 116.752 1.8419L129.623 32.6056C130.311 34.2482 132.269 34.9341 133.831 34.0793L144.658 28.1541C146.105 27.3624 147.919 27.887 148.721 29.3286L160.612 50.728C161.833 52.9245 165.051 52.7369 166.008 50.4135Z" fill="url(#paint0_linear_2171_100407)"/>
<defs>
<linearGradient id="paint0_linear_2171_100407" x1="90.9375" y1="-3.43066" x2="90.9375" y2="93.5693" gradientUnits="userSpaceOnUse">
<stop stop-color="#B12B2B"/>
<stop offset="1" stop-color="#B12B2B" stop-opacity="0"/>
</linearGradient>
</defs>
</svg>
