<svg width="24" height="23" viewBox="0 0 24 23" fill="none" xmlns="http://www.w3.org/2000/svg">
<path d="M23.1802 17.1119C23.6084 16.2624 23.8915 15.3401 24 14.3732L16.9401 15.7166V13.134L23.18 11.9476C23.6082 11.0981 23.8913 10.1758 23.9998 9.20886L16.9399 10.5512V1.26324C15.8581 1.8067 14.8974 2.53011 14.1164 3.38341V11.0883L11.2929 11.6253V0C10.2111 0.543271 9.25038 1.26687 8.46941 2.12017V12.1621L2.15183 13.3632C1.72356 14.2127 1.44025 15.135 1.33158 16.1019L8.46941 14.7447V17.9971L0.819827 19.4515C0.391553 20.301 0.108456 21.2233 0 22.1902L8.00697 20.6678C8.65878 20.5465 9.21899 20.2017 9.58322 19.7272L11.0516 17.7793V17.7789C11.2041 17.5774 11.2929 17.3344 11.2929 17.0727V14.2078L14.1164 13.6708V18.8361L23.18 17.1115L23.1802 17.1119Z" fill="#1A1A31"/>
</svg>
